<svg width="152" height="171" viewBox="0 0 152 171" fill="none" xmlns="http://www.w3.org/2000/svg">
<path d="M1.40029 26.8016C5.68381 -3.31853 46.7103 -10.0951 60.6981 17.0071L61.3493 18.1827C67.7662 29.7653 84.8513 29.071 90.2819 17.0071C105.717 -9.26121 146.044 -1.73929 150.701 28.2768L151.619 34.1945C151.873 35.8278 152 37.4777 152 39.1301V94.614C152 98.0764 151.441 101.517 150.345 104.806L140.648 133.892C138.105 141.522 132.797 147.957 125.743 151.963L105.762 163.314C102.605 165.108 99.1684 166.373 95.5925 167.06L78.2099 170.399C72.7447 171.449 67.0994 171.12 61.7981 169.44L54.3496 167.081C52.1272 166.378 49.9867 165.444 47.9639 164.294L26.2565 151.963C19.2027 147.957 13.8954 141.522 11.3518 133.892L1.65521 104.806C0.558737 101.517 0 98.0764 0 94.614V36.648L1.40029 26.8016Z" fill="url(#paint0_linear_809_106)"/>
<defs>
<linearGradient id="paint0_linear_809_106" x1="25.6757" y1="22.015" x2="128.428" y2="200.961" gradientUnits="userSpaceOnUse">
<stop stop-color="#FF1111"/>
<stop offset="1" stop-color="#FF0660"/>
</linearGradient>
</defs>
</svg>
