<svg width="118" height="118" viewBox="0 0 118 118" fill="none" xmlns="http://www.w3.org/2000/svg">
<g clip-path="url(#clip0)">
<path d="M118 64.1105C118 94.241 94.1542 96.523 73.9958 109.113C46.1292 126.517 57.9178 89.3941 23.3124 69.263C17.2068 65.7112 13.0427 59.0459 14.9381 52.2207C22.1673 26.1889 40.2964 -7.29871 65.8833 1.40751C92.4333 6.83848 114.067 31.3515 118 64.1105Z" fill="#36E7FF"/>
<path d="M105.708 68.0603C105.708 98.1908 81.8625 100.473 61.7041 113.063C33.8376 130.467 45.6259 93.3439 11.0207 73.2129C4.91509 69.661 0.750991 62.9957 2.64639 56.1705C9.87559 30.1387 28.0047 -3.34891 53.5916 5.35731C80.1416 10.7883 101.775 35.3013 105.708 68.0603Z" fill="#4636FF"/>
<path d="M112.838 64.1105C112.838 94.241 88.9917 96.523 68.8334 109.113C40.9668 126.517 52.7554 89.3941 18.1499 69.263C12.0443 65.7112 7.88022 59.0459 9.77559 52.2207C17.0048 26.1889 35.1339 -7.29871 60.7209 1.40751C87.2709 6.83848 108.904 31.3515 112.838 64.1105Z" fill="#1875FF"/>
<path d="M22.0299 47.2394C22.6524 36.9987 26.999 28.8712 37.1278 29.4921C47.2567 30.1129 59.828 36.9987 59.2055 47.2395C58.5831 57.4803 49.469 54.3052 39.3403 53.6846C29.2114 53.064 21.4075 57.4803 22.0299 47.2394Z" fill="white"/>
<path d="M67.7551 47.2394C68.3775 36.9987 72.7239 28.8712 82.8527 29.4921C92.9815 30.1129 105.553 36.9987 104.93 47.2395C104.308 57.4803 95.194 54.3052 85.0652 53.6846C74.9364 53.064 67.1326 57.4803 67.7551 47.2394Z" fill="white"/>
</g>
<defs>
<clipPath id="clip0">
<rect width="118" height="118" fill="white"/>
</clipPath>
</defs>
</svg>
