<svg width="148" height="167" viewBox="0 0 148 167" fill="none" xmlns="http://www.w3.org/2000/svg">
<path d="M1.36344 26.1747C5.53423 -3.2409 45.481 -9.85899 59.1007 16.6093L59.7349 17.7574C65.9829 29.069 82.6184 28.391 87.906 16.6093C102.935 -9.04457 142.201 -1.6986 146.735 27.6153L147.629 33.3946C147.876 34.9897 148 36.6011 148 38.2148V92.4008C148 95.7822 147.456 99.142 146.388 102.354L136.947 130.76C134.47 138.211 129.303 144.496 122.434 148.409L102.979 159.494C99.9045 161.246 96.5587 162.481 93.0769 163.152L76.1518 166.413C70.8304 167.438 65.3336 167.117 60.1718 165.477L52.9193 163.172C50.7555 162.486 48.6712 161.574 46.7017 160.451L25.5656 148.409C18.6974 144.496 13.5297 138.211 11.0531 130.76L1.61166 102.354C0.544033 99.142 0 95.7822 0 92.4008V35.7907L1.36344 26.1747Z" fill="url(#paint0_linear)"/>
<defs>
<linearGradient id="paint0_linear" x1="25" y1="21.5" x2="125.5" y2="196" gradientUnits="userSpaceOnUse">
<stop stop-color="#FF505A"/>
<stop offset="0.935227" stop-color="#C82567"/>
</linearGradient>
</defs>
</svg>
