<svg width="327" height="352" viewBox="0 0 327 352" fill="none" xmlns="http://www.w3.org/2000/svg">
<path d="M47.4365 259.368C47.7031 257.963 48.445 256.714 49.5185 255.863C50.5921 255.013 51.9206 254.622 53.2467 254.766C54.5728 254.91 55.8019 255.579 56.6957 256.644C57.5895 257.708 58.0844 259.092 58.0844 260.526C58.0844 261.961 57.5895 263.345 56.6957 264.409C55.8019 265.473 54.5728 266.142 53.2467 266.286C51.9206 266.431 50.5921 266.04 49.5185 265.189C48.445 264.339 47.7031 263.09 47.4365 261.684H0V259.368H47.4365ZM219.542 314.947C219.808 313.542 220.55 312.293 221.624 311.442C222.697 310.592 224.026 310.201 225.352 310.345C226.678 310.489 227.907 311.158 228.801 312.223C229.695 313.287 230.19 314.671 230.19 316.105C230.19 317.54 229.695 318.924 228.801 319.988C227.907 321.052 226.678 321.721 225.352 321.865C224.026 322.01 222.697 321.619 221.624 320.768C220.55 319.918 219.808 318.669 219.542 317.263H88.2039V314.947H219.542ZM281.715 261.684C281.448 263.09 280.706 264.339 279.633 265.189C278.559 266.04 277.231 266.431 275.905 266.286C274.579 266.142 273.349 265.473 272.456 264.409C271.562 263.345 271.067 261.961 271.067 260.526C271.067 259.092 271.562 257.708 272.456 256.644C273.349 255.579 274.579 254.91 275.905 254.766C277.231 254.622 278.559 255.013 279.633 255.863C280.706 256.714 281.448 257.963 281.715 259.368H327V261.684H281.715ZM281.715 280.211C281.448 281.616 280.706 282.865 279.633 283.716C278.559 284.566 277.231 284.957 275.905 284.813C274.579 284.669 273.349 283.999 272.456 282.935C271.562 281.871 271.067 280.487 271.067 279.053C271.067 277.618 271.562 276.234 272.456 275.17C273.349 274.106 274.579 273.437 275.905 273.292C277.231 273.148 278.559 273.539 279.633 274.39C280.706 275.24 281.448 276.489 281.715 277.895H327V280.211H281.715ZM288.384 148.211C288.65 146.805 289.392 145.556 290.466 144.705C291.539 143.855 292.868 143.464 294.194 143.608C295.52 143.752 296.749 144.422 297.643 145.486C298.537 146.55 299.032 147.934 299.032 149.368C299.032 150.803 298.537 152.187 297.643 153.251C296.749 154.315 295.52 154.984 294.194 155.129C292.868 155.273 291.539 154.882 290.466 154.031C289.392 153.181 288.65 151.932 288.384 150.526H195.662C195.396 151.932 194.654 153.181 193.58 154.031C192.507 154.882 191.178 155.273 189.852 155.129C188.526 154.984 187.297 154.315 186.403 153.251C185.509 152.187 185.014 150.803 185.014 149.368C185.014 147.934 185.509 146.55 186.403 145.486C187.297 144.422 188.526 143.752 189.852 143.608C191.178 143.464 192.507 143.855 193.58 144.705C194.654 145.556 195.396 146.805 195.662 148.211H288.384ZM13.0155 92.6316C13.282 91.2258 14.024 89.9767 15.0975 89.1264C16.171 88.2761 17.4996 87.8851 18.8257 88.0293C20.1517 88.1735 21.3808 88.8426 22.2747 89.9069C23.1685 90.9711 23.6634 92.3548 23.6634 93.7895C23.6634 95.2242 23.1685 96.6078 22.2747 97.6721C21.3808 98.7363 20.1517 99.4054 18.8257 99.5496C17.4996 99.6938 16.171 99.3029 15.0975 98.4525C14.024 97.6022 13.282 96.3531 13.0155 94.9474H0V92.6316H13.0155ZM212.873 132C212.606 133.406 211.864 134.655 210.791 135.505C209.717 136.355 208.389 136.746 207.062 136.602C205.736 136.458 204.507 135.789 203.613 134.725C202.72 133.66 202.225 132.277 202.225 130.842C202.225 129.407 202.72 128.024 203.613 126.96C204.507 125.895 205.736 125.226 207.062 125.082C208.389 124.938 209.717 125.329 210.791 126.179C211.864 127.029 212.606 128.278 212.873 129.684H305.594C305.861 128.278 306.603 127.029 307.676 126.179C308.75 125.329 310.079 124.938 311.405 125.082C312.731 125.226 313.96 125.895 314.854 126.96C315.747 128.024 316.242 129.407 316.242 130.842C316.242 132.277 315.747 133.66 314.854 134.725C313.96 135.789 312.731 136.458 311.405 136.602C310.079 136.746 308.75 136.355 307.676 135.505C306.603 134.655 305.861 133.406 305.594 132H212.873ZM277.52 14.0105C278.826 14.2975 279.986 15.0962 280.776 16.2517C281.566 17.4073 281.929 18.8375 281.795 20.2649C281.661 21.6924 281.04 23.0154 280.051 23.9776C279.062 24.9398 277.777 25.4725 276.444 25.4725C275.111 25.4725 273.826 24.9398 272.837 23.9776C271.849 23.0154 271.227 21.6924 271.093 20.2649C270.959 18.8375 271.322 17.4073 272.112 16.2517C272.902 15.0962 274.062 14.2975 275.368 14.0105V0H277.52V14.0105ZM208.678 254.853C209.984 255.14 211.144 255.938 211.934 257.094C212.724 258.249 213.087 259.68 212.953 261.107C212.819 262.534 212.197 263.858 211.209 264.82C210.22 265.782 208.935 266.315 207.602 266.315C206.269 266.315 204.984 265.782 203.995 264.82C203.006 263.858 202.385 262.534 202.251 261.107C202.117 259.68 202.48 258.249 203.27 257.094C204.06 255.938 205.22 255.14 206.526 254.853V192.095C205.22 191.808 204.06 191.009 203.27 189.854C202.48 188.698 202.117 187.268 202.251 185.84C202.385 184.413 203.006 183.09 203.995 182.128C204.984 181.165 206.269 180.633 207.602 180.633C208.935 180.633 210.22 181.165 211.209 182.128C212.197 183.09 212.819 184.413 212.953 185.84C213.087 187.268 212.724 188.698 211.934 189.854C211.144 191.009 209.984 191.808 208.678 192.095V254.853ZM260.309 25.3579V92.6316H327V94.9474H258.158V25.3579C256.852 25.0709 255.692 24.2723 254.902 23.1167C254.112 21.9611 253.749 20.531 253.882 19.1035C254.016 17.676 254.638 16.353 255.627 15.3908C256.615 14.4286 257.901 13.8959 259.234 13.8959C260.566 13.8959 261.852 14.4286 262.84 15.3908C263.829 16.353 264.451 17.676 264.585 19.1035C264.719 20.531 264.355 21.9611 263.565 23.1167C262.775 24.2723 261.615 25.0709 260.309 25.3579ZM277.52 43.8842V74.1053H327V76.4211H275.368V43.8842C274.062 43.5973 272.902 42.7986 272.112 41.643C271.322 40.4874 270.959 39.0573 271.093 37.6298C271.227 36.2024 271.849 34.8793 272.837 33.9171C273.826 32.955 275.111 32.4222 276.444 32.4222C277.777 32.4222 279.062 32.955 280.051 33.9171C281.04 34.8793 281.661 36.2024 281.795 37.6298C281.929 39.0573 281.566 40.4874 280.776 41.643C279.986 42.7986 278.826 43.5973 277.52 43.8842ZM139.836 155.042V240.842H157.046V254.853C158.352 255.14 159.512 255.938 160.302 257.094C161.092 258.249 161.455 259.68 161.321 261.107C161.187 262.534 160.566 263.858 159.577 264.82C158.589 265.782 157.303 266.315 155.97 266.315C154.638 266.315 153.352 265.782 152.364 264.82C151.375 263.858 150.753 262.534 150.619 261.107C150.485 259.68 150.849 258.249 151.639 257.094C152.428 255.938 153.589 255.14 154.895 254.853V243.158H137.684V155.042C136.378 154.755 135.218 153.956 134.428 152.801C133.638 151.645 133.275 150.215 133.409 148.788C133.543 147.36 134.164 146.037 135.153 145.075C136.142 144.113 137.427 143.58 138.76 143.58C140.093 143.58 141.378 144.113 142.367 145.075C143.355 146.037 143.977 147.36 144.111 148.788C144.245 150.215 143.882 151.645 143.092 152.801C142.302 153.956 141.141 154.755 139.836 155.042ZM133.489 129.684C133.756 128.278 134.498 127.029 135.571 126.179C136.645 125.329 137.973 124.938 139.299 125.082C140.625 125.226 141.854 125.895 142.748 126.96C143.642 128.024 144.137 129.407 144.137 130.842C144.137 132.277 143.642 133.66 142.748 134.725C141.854 135.789 140.625 136.458 139.299 136.602C137.973 136.746 136.645 136.355 135.571 135.505C134.498 134.655 133.756 133.406 133.489 132H122.625V187.579H92.399C92.1324 188.985 91.3905 190.234 90.317 191.084C89.2435 191.934 87.9149 192.325 86.5888 192.181C85.2627 192.037 84.0336 191.368 83.1398 190.304C82.246 189.239 81.7511 187.856 81.7511 186.421C81.7511 184.986 82.246 183.603 83.1398 182.538C84.0336 181.474 85.2627 180.805 86.5888 180.661C87.9149 180.517 89.2435 180.908 90.317 181.758C91.3905 182.608 92.1324 183.857 92.399 185.263H120.474V129.684H133.489ZM126.82 280.211C126.553 281.616 125.812 282.865 124.738 283.716C123.665 284.566 122.336 284.957 121.01 284.813C119.684 284.669 118.455 283.999 117.561 282.935C116.667 281.871 116.172 280.487 116.172 279.053C116.172 277.618 116.667 276.234 117.561 275.17C118.455 274.106 119.684 273.437 121.01 273.292C122.336 273.148 123.665 273.539 124.738 274.39C125.812 275.24 126.553 276.489 126.82 277.895H189.316V192.095C188.01 191.808 186.849 191.009 186.06 189.854C185.27 188.698 184.906 187.268 185.04 185.84C185.174 184.413 185.796 183.09 186.785 182.128C187.773 181.165 189.059 180.633 190.391 180.633C191.724 180.633 193.01 181.165 193.998 182.128C194.987 183.09 195.609 184.413 195.742 185.84C195.876 187.268 195.513 188.698 194.723 189.854C193.933 191.009 192.773 191.808 191.467 192.095V280.211H126.82ZM109.61 206.105C109.343 207.511 108.601 208.76 107.528 209.61C106.454 210.461 105.125 210.852 103.799 210.708C102.473 210.563 101.244 209.894 100.35 208.83C99.4565 207.766 98.9616 206.382 98.9616 204.947C98.9616 203.513 99.4565 202.129 100.35 201.065C101.244 200.001 102.473 199.331 103.799 199.187C105.125 199.043 106.454 199.434 107.528 200.284C108.601 201.135 109.343 202.384 109.61 203.789H122.625V259.368H133.489C133.756 257.963 134.498 256.714 135.571 255.863C136.645 255.013 137.973 254.622 139.299 254.766C140.625 254.91 141.854 255.579 142.748 256.644C143.642 257.708 144.137 259.092 144.137 260.526C144.137 261.961 143.642 263.345 142.748 264.409C141.854 265.473 140.625 266.142 139.299 266.286C137.973 266.431 136.645 266.04 135.571 265.189C134.498 264.339 133.756 263.09 133.489 261.684H120.474V206.105H109.61ZM70.9934 328.958C72.2993 329.245 73.4597 330.044 74.2496 331.199C75.0396 332.355 75.4028 333.785 75.2688 335.212C75.1348 336.64 74.5133 337.963 73.5246 338.925C72.5359 339.887 71.2506 340.42 69.9178 340.42C68.5849 340.42 67.2996 339.887 66.3109 338.925C65.3222 337.963 64.7007 336.64 64.5667 335.212C64.4327 333.785 64.7959 332.355 65.5859 331.199C66.3758 330.044 67.5362 329.245 68.8421 328.958V317.263H53.7829V352H51.6316V314.947H70.9934V328.958ZM253.963 203.789C254.229 202.384 254.971 201.135 256.045 200.284C257.118 199.434 258.447 199.043 259.773 199.187C261.099 199.331 262.328 200.001 263.222 201.065C264.116 202.129 264.611 203.513 264.611 204.947C264.611 206.382 264.116 207.766 263.222 208.83C262.328 209.894 261.099 210.563 259.773 210.708C258.447 210.852 257.118 210.461 256.045 209.61C254.971 208.76 254.229 207.511 253.963 206.105H243.099V314.947H294.73V352H292.579V317.263H240.947V203.789H253.963ZM281.715 169.053C281.448 170.458 280.706 171.707 279.633 172.558C278.559 173.408 277.231 173.799 275.905 173.655C274.579 173.511 273.349 172.842 272.456 171.777C271.562 170.713 271.067 169.329 271.067 167.895C271.067 166.46 271.562 165.076 272.456 164.012C273.349 162.948 274.579 162.279 275.905 162.135C277.231 161.99 278.559 162.381 279.633 163.232C280.706 164.082 281.448 165.331 281.715 166.737H294.73V217.8C296.036 218.087 297.197 218.886 297.986 220.041C298.776 221.197 299.14 222.627 299.006 224.054C298.872 225.482 298.25 226.805 297.261 227.767C296.273 228.729 294.987 229.262 293.655 229.262C292.322 229.262 291.036 228.729 290.048 227.767C289.059 226.805 288.438 225.482 288.304 224.054C288.17 222.627 288.533 221.197 289.323 220.041C290.113 218.886 291.273 218.087 292.579 217.8V169.053H281.715ZM212.873 280.211C212.606 281.616 211.864 282.865 210.791 283.716C209.717 284.566 208.389 284.957 207.062 284.813C205.736 284.669 204.507 283.999 203.613 282.935C202.72 281.871 202.225 280.487 202.225 279.053C202.225 277.618 202.72 276.234 203.613 275.17C204.507 274.106 205.736 273.437 207.062 273.292C208.389 273.148 209.717 273.539 210.791 274.39C211.864 275.24 212.606 276.489 212.873 277.895H223.737V185.263H240.947V169.053H195.662C195.396 170.458 194.654 171.707 193.58 172.558C192.507 173.408 191.178 173.799 189.852 173.655C188.526 173.511 187.297 172.842 186.403 171.777C185.509 170.713 185.014 169.329 185.014 167.895C185.014 166.46 185.509 165.076 186.403 164.012C187.297 162.948 188.526 162.279 189.852 162.135C191.178 161.99 192.507 162.381 193.58 163.232C194.654 164.082 195.396 165.331 195.662 166.737H243.099V187.579H225.888V280.211H212.873ZM305.594 37.0526C305.861 35.6469 306.603 34.3978 307.676 33.5475C308.75 32.6971 310.079 32.3062 311.405 32.4504C312.731 32.5946 313.96 33.2637 314.854 34.3279C315.747 35.3922 316.242 36.7758 316.242 38.2105C316.242 39.6452 315.747 41.0289 314.854 42.0931C313.96 43.1574 312.731 43.8265 311.405 43.9707C310.079 44.1149 308.75 43.7239 307.676 42.8736C306.603 42.0233 305.861 40.7742 305.594 39.3684H292.579V0H294.73V37.0526H305.594ZM105.414 117.989V169.053H57.978C57.7114 170.458 56.9694 171.707 55.8959 172.558C54.8224 173.408 53.4938 173.799 52.1678 173.655C50.8417 173.511 49.6126 172.842 48.7188 171.777C47.8249 170.713 47.33 169.329 47.33 167.895C47.33 166.46 47.8249 165.076 48.7188 164.012C49.6126 162.948 50.8417 162.279 52.1678 162.135C53.4938 161.99 54.8224 162.381 55.8959 163.232C56.9694 164.082 57.7114 165.331 57.978 166.737H103.263V117.989C101.957 117.703 100.797 116.904 100.007 115.748C99.217 114.593 98.8538 113.163 98.9878 111.735C99.1217 110.308 99.7433 108.985 100.732 108.022C101.721 107.06 103.006 106.527 104.339 106.527C105.672 106.527 106.957 107.06 107.946 108.022C108.934 108.985 109.556 110.308 109.69 111.735C109.824 113.163 109.461 114.593 108.671 115.748C107.881 116.904 106.72 117.703 105.414 117.989ZM57.978 39.3684C57.7114 40.7742 56.9694 42.0233 55.8959 42.8736C54.8224 43.7239 53.4938 44.1149 52.1678 43.9707C50.8417 43.8265 49.6126 43.1574 48.7188 42.0931C47.8249 41.0289 47.33 39.6452 47.33 38.2105C47.33 36.7758 47.8249 35.3922 48.7188 34.3279C49.6126 33.2637 50.8417 32.5946 52.1678 32.4504C53.4938 32.3062 54.8224 32.6971 55.8959 33.5475C56.9694 34.3978 57.7114 35.6469 57.978 37.0526H86.0526V0H88.2039V39.3684H57.978ZM122.625 43.8842V76.4211H88.2039V150.526H75.1885C74.9219 151.932 74.18 153.181 73.1065 154.031C72.0329 154.882 70.7044 155.273 69.3783 155.129C68.0522 154.984 66.8231 154.315 65.9293 153.251C65.0355 152.187 64.5406 150.803 64.5406 149.368C64.5406 147.934 65.0355 146.55 65.9293 145.486C66.8231 144.422 68.0522 143.752 69.3783 143.608C70.7044 143.464 72.0329 143.855 73.1065 144.705C74.18 145.556 74.9219 146.805 75.1885 148.211H86.0526V74.1053H120.474V43.8842C119.168 43.5973 118.007 42.7986 117.217 41.643C116.428 40.4874 116.064 39.0573 116.198 37.6298C116.332 36.2024 116.954 34.8793 117.942 33.9171C118.931 32.955 120.217 32.4222 121.549 32.4222C122.882 32.4222 124.168 32.955 125.156 33.9171C126.145 34.8793 126.766 36.2024 126.9 37.6298C127.034 39.0573 126.671 40.4874 125.881 41.643C125.091 42.7986 123.931 43.5973 122.625 43.8842ZM109.61 94.9474C109.343 96.3531 108.601 97.6022 107.528 98.4525C106.454 99.3029 105.125 99.6938 103.799 99.5496C102.473 99.4054 101.244 98.7363 100.35 97.6721C99.4565 96.6078 98.9616 95.2242 98.9616 93.7895C98.9616 92.3548 99.4565 90.9711 100.35 89.9069C101.244 88.8426 102.473 88.1735 103.799 88.0293C105.125 87.8851 106.454 88.2761 107.528 89.1264C108.601 89.9767 109.343 91.2258 109.61 92.6316H137.684V43.8842C136.378 43.5973 135.218 42.7986 134.428 41.643C133.638 40.4874 133.275 39.0573 133.409 37.6298C133.543 36.2024 134.164 34.8793 135.153 33.9171C136.142 32.955 137.427 32.4222 138.76 32.4222C140.093 32.4222 141.378 32.955 142.367 33.9171C143.355 34.8793 143.977 36.2024 144.111 37.6298C144.245 39.0573 143.882 40.4874 143.092 41.643C142.302 42.7986 141.141 43.5973 139.836 43.8842V94.9474H109.61ZM126.82 20.8421C126.553 22.2478 125.812 23.497 124.738 24.3473C123.665 25.1976 122.336 25.5886 121.01 25.4444C119.684 25.3002 118.455 24.6311 117.561 23.5668C116.667 22.5025 116.172 21.1189 116.172 19.6842C116.172 18.2495 116.667 16.8659 117.561 15.8016C118.455 14.7373 119.684 14.0683 121.01 13.9241C122.336 13.7799 123.665 14.1708 124.738 15.0211C125.812 15.8715 126.553 17.1206 126.82 18.5263H157.046V69.5895C158.352 69.8764 159.512 70.6751 160.302 71.8307C161.092 72.9863 161.455 74.4164 161.321 75.8439C161.187 77.2713 160.566 78.5944 159.577 79.5566C158.589 80.5187 157.303 81.0514 155.97 81.0514C154.638 81.0514 153.352 80.5187 152.364 79.5566C151.375 78.5944 150.753 77.2713 150.619 75.8439C150.485 74.4164 150.849 72.9863 151.639 71.8307C152.428 70.6751 153.589 69.8764 154.895 69.5895V20.8421H126.82ZM236.752 333.474C237.019 332.068 237.761 330.819 238.834 329.969C239.908 329.118 241.236 328.727 242.562 328.871C243.889 329.016 245.118 329.685 246.011 330.749C246.905 331.813 247.4 333.197 247.4 334.632C247.4 336.066 246.905 337.45 246.011 338.514C245.118 339.578 243.889 340.248 242.562 340.392C241.236 340.536 239.908 340.145 238.834 339.295C237.761 338.444 237.019 337.195 236.752 335.789H105.414V352H103.263V333.474H236.752ZM260.309 173.568V185.263H277.52V224.632H260.309V296.421H311.941V352H309.789V298.737H258.158V222.316H275.368V187.579H258.158V173.568C256.852 173.281 255.692 172.483 254.902 171.327C254.112 170.172 253.749 168.741 253.882 167.314C254.016 165.887 254.638 164.564 255.627 163.601C256.615 162.639 257.901 162.106 259.234 162.106C260.566 162.106 261.852 162.639 262.84 163.601C263.829 164.564 264.451 165.887 264.585 167.314C264.719 168.741 264.355 170.172 263.565 171.327C262.775 172.483 261.615 173.281 260.309 173.568ZM57.978 20.8421C57.7114 22.2478 56.9694 23.497 55.8959 24.3473C54.8224 25.1976 53.4938 25.5886 52.1678 25.4444C50.8417 25.3002 49.6126 24.6311 48.7188 23.5668C47.8249 22.5025 47.33 21.1189 47.33 19.6842C47.33 18.2495 47.8249 16.8659 48.7188 15.8016C49.6126 14.7373 50.8417 14.0683 52.1678 13.9241C53.4938 13.7799 54.8224 14.1708 55.8959 15.0211C56.9694 15.8715 57.7114 17.1206 57.978 18.5263H68.8421V2.31579H51.6316V0H70.9934V20.8421H57.978ZM178.452 57.8947C178.185 59.3005 177.443 60.5496 176.37 61.3999C175.296 62.2502 173.968 62.6412 172.641 62.497C171.315 62.3528 170.086 61.6837 169.192 60.6194C168.299 59.5552 167.804 58.1716 167.804 56.7368C167.804 55.3021 168.299 53.9185 169.192 52.8542C170.086 51.79 171.315 51.1209 172.641 50.9767C173.968 50.8325 175.296 51.2234 176.37 52.0738C177.443 52.9241 178.185 54.1732 178.452 55.5789H206.526V0H260.309V2.31579H208.678V57.8947H178.452ZM126.82 2.31579C126.679 3.06087 126.403 3.7687 126.007 4.39887C125.612 5.02905 125.105 5.56922 124.516 5.98855C123.926 6.40788 123.266 6.69816 122.573 6.8428C121.879 6.98745 121.166 6.98364 120.474 6.83158C119.782 6.67952 119.124 6.3822 118.539 5.95659C117.953 5.53098 117.451 4.98541 117.062 4.35104C116.275 3.06987 115.993 1.50475 116.279 0L118.505 0C118.334 0.523794 118.282 1.08413 118.353 1.63403C118.425 2.18394 118.618 2.70738 118.916 3.1605C119.214 3.61361 119.609 3.98319 120.067 4.23825C120.525 4.49331 121.034 4.62641 121.549 4.62641C122.065 4.62641 122.573 4.49331 123.032 4.23825C123.49 3.98319 123.885 3.61361 124.183 3.1605C124.481 2.70738 124.674 2.18394 124.745 1.63403C124.817 1.08413 124.765 0.523794 124.593 0L191.467 0V39.3684H172.105V25.3579C170.799 25.0709 169.639 24.2723 168.849 23.1167C168.059 21.9611 167.696 20.531 167.83 19.1035C167.964 17.676 168.585 16.353 169.574 15.3908C170.563 14.4286 171.848 13.8959 173.181 13.8959C174.514 13.8959 175.799 14.4286 176.788 15.3908C177.776 16.353 178.398 17.676 178.532 19.1035C178.666 20.531 178.303 21.9611 177.513 23.1167C176.723 24.2723 175.562 25.0709 174.257 25.3579V37.0526H189.316V2.31579H126.82ZM126.82 113.474C126.553 114.879 125.812 116.129 124.738 116.979C123.665 117.829 122.336 118.22 121.01 118.076C119.684 117.932 118.455 117.263 117.561 116.198C116.667 115.134 116.172 113.751 116.172 112.316C116.172 110.881 116.667 109.497 117.561 108.433C118.455 107.369 119.684 106.7 121.01 106.556C122.336 106.411 123.665 106.802 124.738 107.653C125.812 108.503 126.553 109.752 126.82 111.158H147.365L181.786 74.1053H223.737V25.3579C222.431 25.0709 221.271 24.2723 220.481 23.1167C219.691 21.9611 219.327 20.531 219.461 19.1035C219.595 17.676 220.217 16.353 221.206 15.3908C222.194 14.4286 223.48 13.8959 224.812 13.8959C226.145 13.8959 227.431 14.4286 228.419 15.3908C229.408 16.353 230.03 17.676 230.164 19.1035C230.298 20.531 229.934 21.9611 229.144 23.1167C228.354 24.2723 227.194 25.0709 225.888 25.3579V76.4211H182.679L148.258 113.474H126.82ZM157.046 217.8C158.352 218.087 159.512 218.886 160.302 220.041C161.092 221.197 161.455 222.627 161.321 224.054C161.187 225.482 160.566 226.805 159.577 227.767C158.589 228.729 157.303 229.262 155.97 229.262C154.638 229.262 153.352 228.729 152.364 227.767C151.375 226.805 150.753 225.482 150.619 224.054C150.485 222.627 150.849 221.197 151.639 220.041C152.428 218.886 153.589 218.087 154.895 217.8V129.209L188.875 92.6316H240.947V25.3579C239.641 25.0709 238.481 24.2723 237.691 23.1167C236.901 21.9611 236.538 20.531 236.672 19.1035C236.806 17.676 237.427 16.353 238.416 15.3908C239.405 14.4286 240.69 13.8959 242.023 13.8959C243.356 13.8959 244.641 14.4286 245.63 15.3908C246.619 16.353 247.24 17.676 247.374 19.1035C247.508 20.531 247.145 21.9611 246.355 23.1167C245.565 24.2723 244.405 25.0709 243.099 25.3579V94.9474H189.757L157.046 130.159V217.8ZM174.257 254.853C175.562 255.14 176.723 255.938 177.513 257.094C178.303 258.249 178.666 259.68 178.532 261.107C178.398 262.534 177.776 263.858 176.788 264.82C175.799 265.782 174.514 266.315 173.181 266.315C171.848 266.315 170.563 265.782 169.574 264.82C168.585 263.858 167.964 262.534 167.83 261.107C167.696 259.68 168.059 258.249 168.849 257.094C169.639 255.938 170.799 255.14 172.105 254.853V139.631L198.556 111.158H322.805C323.016 110.045 323.526 109.024 324.272 108.221C325.018 107.418 325.966 106.869 327 106.642V109.039C326.37 109.278 325.824 109.721 325.438 110.308C325.051 110.895 324.844 111.597 324.844 112.316C324.844 113.035 325.051 113.737 325.438 114.324C325.824 114.911 326.37 115.354 327 115.593V117.989C325.966 117.763 325.018 117.213 324.272 116.411C323.526 115.608 323.016 114.586 322.805 113.474H199.438L174.257 140.58V254.853ZM19.3618 180.747C20.6677 181.034 21.8281 181.833 22.6181 182.989C23.408 184.144 23.7712 185.574 23.6372 187.002C23.5033 188.429 22.8817 189.752 21.893 190.714C20.9044 191.677 19.619 192.209 18.2862 192.209C16.9534 192.209 15.668 191.677 14.6793 190.714C13.6907 189.752 13.0691 188.429 12.9351 187.002C12.8012 185.574 13.1644 184.144 13.9543 182.989C14.7442 181.833 15.9046 181.034 17.2105 180.747V176.683L68.8421 121.104V55.5789H103.263V0H105.414V57.8947H70.9934V122.054L19.3618 177.633V180.747ZM53.7829 62.4105V112.791L2.15132 168.369V240.842H30.226C30.4925 239.436 31.2345 238.187 32.308 237.337C33.3815 236.487 34.7101 236.096 36.0362 236.24C37.3623 236.384 38.5913 237.053 39.4852 238.117C40.379 239.182 40.8739 240.565 40.8739 242C40.8739 243.435 40.379 244.818 39.4852 245.883C38.5913 246.947 37.3623 247.616 36.0362 247.76C34.7101 247.904 33.3815 247.513 32.308 246.663C31.2345 245.813 30.4925 244.564 30.226 243.158H0V167.42L51.6316 111.841V62.4105C50.3257 62.1236 49.1653 61.3249 48.3753 60.1693C47.5854 59.0137 47.2222 57.5836 47.3562 56.1561C47.4901 54.7287 48.1117 53.4056 49.1004 52.4434C50.0891 51.4813 51.3744 50.9486 52.7072 50.9486C54.0401 50.9486 55.3254 51.4813 56.3141 52.4434C57.3028 53.4056 57.9243 54.7287 58.0583 56.1561C58.1922 57.5836 57.8291 59.0137 57.0391 60.1693C56.2492 61.3249 55.0888 62.1236 53.7829 62.4105ZM36.5724 80.9368V103.527L0 142.896V139.631L34.4211 102.578V80.9368C33.1152 80.6499 31.9548 79.8512 31.1648 78.6956C30.3749 77.54 30.0117 76.1099 30.1457 74.6824C30.2796 73.255 30.9012 71.9319 31.8899 70.9698C32.8785 70.0076 34.1639 69.4749 35.4967 69.4749C36.8295 69.4749 38.1149 70.0076 39.1036 70.9698C40.0922 71.9319 40.7138 73.255 40.8478 74.6824C40.9817 76.1099 40.6185 77.54 39.8286 78.6956C39.0387 79.8512 37.8783 80.6499 36.5724 80.9368ZM13.0155 37.0526C13.282 35.6469 14.024 34.3978 15.0975 33.5475C16.171 32.6971 17.4996 32.3062 18.8257 32.4504C20.1517 32.5946 21.3808 33.2637 22.2747 34.3279C23.1685 35.3922 23.6634 36.7758 23.6634 38.2105C23.6634 39.6452 23.1685 41.0289 22.2747 42.0931C21.3808 43.1574 20.1517 43.8265 18.8257 43.9707C17.4996 44.1149 16.171 43.7239 15.0975 42.8736C14.024 42.0233 13.282 40.7742 13.0155 39.3684H10.1219L0 50.2642V47.0105L9.2399 37.0526H13.0155ZM298.925 57.8947C298.659 59.3005 297.917 60.5496 296.843 61.3999C295.77 62.2502 294.441 62.6412 293.115 62.497C291.789 62.3528 290.56 61.6837 289.666 60.6194C288.772 59.5552 288.277 58.1716 288.277 56.7368C288.277 55.3021 288.772 53.9185 289.666 52.8542C290.56 51.79 291.789 51.1209 293.115 50.9767C294.441 50.8325 295.77 51.2234 296.843 52.0738C297.917 52.9241 298.659 54.1732 298.925 55.5789H319.029L327 46.9989V50.2642L319.911 57.8947H298.925ZM281.715 243.158C281.448 244.564 280.706 245.813 279.633 246.663C278.559 247.513 277.231 247.904 275.905 247.76C274.579 247.616 273.349 246.947 272.456 245.883C271.562 244.818 271.067 243.435 271.067 242C271.067 240.565 271.562 239.182 272.456 238.117C273.349 237.053 274.579 236.384 275.905 236.24C277.231 236.096 278.559 236.487 279.633 237.337C280.706 238.187 281.448 239.436 281.715 240.842H309.789V158.157L327 139.631V142.896L311.941 159.106V243.158H281.715ZM57.978 280.211C57.7114 281.616 56.9694 282.865 55.8959 283.716C54.8224 284.566 53.4938 284.957 52.1678 284.813C50.8417 284.669 49.6126 283.999 48.7188 282.935C47.8249 281.871 47.33 280.487 47.33 279.053C47.33 277.618 47.8249 276.234 48.7188 275.17C49.6126 274.106 50.8417 273.437 52.1678 273.292C53.4938 273.148 54.8224 273.539 55.8959 274.39C56.9694 275.24 57.7114 276.489 57.978 277.895H68.8421V251.738L43.661 224.632H23.5569C23.2903 226.037 22.5484 227.286 21.4749 228.137C20.4014 228.987 19.0728 229.378 17.7467 229.234C16.4206 229.09 15.1915 228.421 14.2977 227.356C13.4039 226.292 12.909 224.908 12.909 223.474C12.909 222.039 13.4039 220.655 14.2977 219.591C15.1915 218.527 16.4206 217.858 17.7467 217.714C19.0728 217.569 20.4014 217.96 21.4749 218.811C22.5484 219.661 23.2903 220.91 23.5569 222.316H44.543L70.9934 250.788V280.211H57.978ZM219.542 296.421C219.808 295.015 220.55 293.766 221.624 292.916C222.697 292.066 224.026 291.675 225.352 291.819C226.678 291.963 227.907 292.632 228.801 293.696C229.695 294.761 230.19 296.144 230.19 297.579C230.19 299.014 229.695 300.397 228.801 301.462C227.907 302.526 226.678 303.195 225.352 303.339C224.026 303.483 222.697 303.092 221.624 302.242C220.55 301.392 219.808 300.143 219.542 298.737H103.263V233.2L60.8822 187.579H40.7674C40.5009 188.985 39.7589 190.234 38.6854 191.084C37.6119 191.934 36.2833 192.325 34.9572 192.181C33.6312 192.037 32.4021 191.368 31.5082 190.304C30.6144 189.239 30.1195 187.856 30.1195 186.421C30.1195 184.986 30.6144 183.603 31.5082 182.538C32.4021 181.474 33.6312 180.805 34.9572 180.661C36.2833 180.517 37.6119 180.908 38.6854 181.758C39.7589 182.608 40.5009 183.857 40.7674 185.263H61.7428L105.414 232.274V296.421H219.542ZM57.978 298.737C57.7114 300.143 56.9694 301.392 55.8959 302.242C54.8224 303.092 53.4938 303.483 52.1678 303.339C50.8417 303.195 49.6126 302.526 48.7188 301.462C47.8249 300.397 47.33 299.014 47.33 297.579C47.33 296.144 47.8249 294.761 48.7188 293.696C49.6126 292.632 50.8417 291.963 52.1678 291.819C53.4938 291.675 54.8224 292.066 55.8959 292.916C56.9694 293.766 57.7114 295.015 57.978 296.421H86.0526V242.475L52.2662 206.105H23.5569C23.2903 207.511 22.5484 208.76 21.4749 209.61C20.4014 210.461 19.0728 210.852 17.7467 210.708C16.4206 210.563 15.1915 209.894 14.2977 208.83C13.4039 207.766 12.909 206.382 12.909 204.947C12.909 203.513 13.4039 202.129 14.2977 201.065C15.1915 200.001 16.4206 199.331 17.7467 199.187C19.0728 199.043 20.4014 199.434 21.4749 200.284C22.5484 201.135 23.2903 202.384 23.5569 203.789H53.1483L88.2039 241.525V298.737H57.978ZM36.5724 46.0842V47.9484L10.1219 76.4211H0V74.1053H9.2399L34.4211 46.9989V0H36.5724V46.0842ZM2.15132 347.484C3.18491 347.711 4.13369 348.26 4.87959 349.063C5.6255 349.866 6.13559 350.887 6.34638 352H4.11977C3.97869 351.57 3.76018 351.173 3.47673 350.834C3.19329 350.494 2.85046 350.218 2.46785 350.021C2.08524 349.825 1.67035 349.711 1.2469 349.687C0.823452 349.663 0.399744 349.729 0 349.881L0 296.421H19.3618V352H17.2105V298.737H2.15132V347.484ZM36.5724 279.053V352H34.4211V280.211H0V277.895H36.5724V279.053ZM18.2862 20.8421H0V18.5263H17.2105V0H19.3618V20.8421H18.2862ZM311.941 18.5263H327V20.8421H309.789V0H311.941V18.5263ZM277.52 334.632V352H275.368V335.789H260.309V352H258.158V333.474H277.52V334.632ZM0 106.642C0.781053 106.475 1.58683 106.495 2.35958 106.703C3.13234 106.91 3.85295 107.299 4.46976 107.841C5.08658 108.383 5.58435 109.065 5.92738 109.839C6.27042 110.613 6.45023 111.459 6.45395 112.316C6.45411 113.174 6.27686 114.022 5.93504 114.798C5.59323 115.574 5.09539 116.258 4.47761 116.801C3.85983 117.344 3.13756 117.733 2.36314 117.938C1.58871 118.144 0.781505 118.161 0 117.989L0 115.593C0.486593 115.777 1.00713 115.833 1.51798 115.756C2.02883 115.679 2.5151 115.471 2.93603 115.15C3.35696 114.83 3.70029 114.405 3.93724 113.911C4.17418 113.418 4.29783 112.871 4.29783 112.316C4.29783 111.761 4.17418 111.213 3.93724 110.72C3.70029 110.227 3.35696 109.802 2.93603 109.481C2.5151 109.16 2.02883 108.953 1.51798 108.876C1.00713 108.799 0.486593 108.855 0 109.039L0 106.642ZM86.0526 314.947H88.2039V352H86.0526V314.947ZM126.82 352H124.593C124.372 351.321 123.96 350.734 123.415 350.318C122.869 349.902 122.218 349.679 121.549 349.679C120.881 349.679 120.229 349.902 119.684 350.318C119.139 350.734 118.727 351.321 118.505 352H116.279C116.525 350.691 117.185 349.515 118.146 348.669C119.106 347.824 120.309 347.363 121.549 347.363C122.79 347.363 123.992 347.824 124.953 348.669C125.914 349.515 126.573 350.691 126.82 352ZM6.34638 0C6.51885 0.936954 6.47417 1.90522 6.21628 2.81916C5.95839 3.7331 5.49524 4.56455 4.8678 5.23996C4.24036 5.91536 3.46797 6.41392 2.61894 6.69153C1.76991 6.96913 0.870409 7.01724 0 6.83158L0 4.43474C0.574636 4.65403 1.19523 4.69361 1.7899 4.54888C2.38457 4.40416 2.92898 4.08105 3.36009 3.61698C3.7912 3.15291 4.09136 2.56687 4.22581 1.92674C4.36026 1.28661 4.32349 0.618568 4.11977 0L6.34638 0ZM322.805 0H325.032C324.89 0.430306 324.829 0.886407 324.851 1.34223C324.874 1.79806 324.979 2.24466 325.162 2.65652C325.345 3.06838 325.601 3.43742 325.917 3.74254C326.232 4.04766 326.6 4.28287 327 4.43474V6.83158C326.308 6.67966 325.65 6.38243 325.065 5.95686C324.479 5.53128 323.977 4.98571 323.588 4.3513C323.198 3.7169 322.928 3.00609 322.794 2.25948C322.66 1.51287 322.664 0.74509 322.805 0V0ZM327 347.484V349.881C326.546 350.054 326.133 350.334 325.793 350.7C325.452 351.067 325.192 351.511 325.032 352H322.805C323.016 350.887 323.526 349.866 324.272 349.063C325.018 348.26 325.966 347.711 327 347.484ZM104.339 115.789C104.763 115.789 105.182 115.7 105.574 115.525C105.965 115.35 106.321 115.095 106.621 114.772C106.92 114.449 107.158 114.067 107.32 113.645C107.482 113.224 107.566 112.772 107.566 112.316C107.566 111.86 107.482 111.408 107.32 110.986C107.158 110.565 106.92 110.182 106.621 109.86C106.321 109.537 105.965 109.281 105.574 109.107C105.182 108.932 104.763 108.842 104.339 108.842C103.483 108.842 102.662 109.208 102.057 109.86C101.452 110.511 101.112 111.395 101.112 112.316C101.112 113.237 101.452 114.121 102.057 114.772C102.662 115.424 103.483 115.789 104.339 115.789ZM104.339 97.2632C105.195 97.2632 106.015 96.8972 106.621 96.2457C107.226 95.5943 107.566 94.7108 107.566 93.7895C107.566 92.8682 107.226 91.9846 106.621 91.3332C106.015 90.6818 105.195 90.3158 104.339 90.3158C103.483 90.3158 102.662 90.6818 102.057 91.3332C101.452 91.9846 101.112 92.8682 101.112 93.7895C101.112 94.7108 101.452 95.5943 102.057 96.2457C102.662 96.8972 103.483 97.2632 104.339 97.2632ZM121.549 115.789C121.973 115.789 122.393 115.7 122.784 115.525C123.176 115.35 123.532 115.095 123.831 114.772C124.131 114.449 124.368 114.067 124.531 113.645C124.693 113.224 124.776 112.772 124.776 112.316C124.776 111.86 124.693 111.408 124.531 110.986C124.368 110.565 124.131 110.182 123.831 109.86C123.532 109.537 123.176 109.281 122.784 109.107C122.393 108.932 121.973 108.842 121.549 108.842C120.693 108.842 119.873 109.208 119.268 109.86C118.662 110.511 118.322 111.395 118.322 112.316C118.322 113.237 118.662 114.121 119.268 114.772C119.873 115.424 120.693 115.789 121.549 115.789ZM138.76 134.316C139.616 134.316 140.437 133.95 141.042 133.298C141.647 132.647 141.987 131.763 141.987 130.842C141.987 129.921 141.647 129.037 141.042 128.386C140.437 127.734 139.616 127.368 138.76 127.368C137.904 127.368 137.083 127.734 136.478 128.386C135.873 129.037 135.533 129.921 135.533 130.842C135.533 131.763 135.873 132.647 136.478 133.298C137.083 133.95 137.904 134.316 138.76 134.316ZM138.76 152.842C139.616 152.842 140.437 152.476 141.042 151.825C141.647 151.173 141.987 150.29 141.987 149.368C141.987 148.447 141.647 147.564 141.042 146.912C140.437 146.261 139.616 145.895 138.76 145.895C137.904 145.895 137.083 146.261 136.478 146.912C135.873 147.564 135.533 148.447 135.533 149.368C135.533 150.29 135.873 151.173 136.478 151.825C137.083 152.476 137.904 152.842 138.76 152.842ZM87.1283 189.895C87.9841 189.895 88.8049 189.529 89.4101 188.877C90.0153 188.226 90.3553 187.342 90.3553 186.421C90.3553 185.5 90.0153 184.616 89.4101 183.965C88.8049 183.313 87.9841 182.947 87.1283 182.947C86.2724 182.947 85.4516 183.313 84.8465 183.965C84.2413 184.616 83.9013 185.5 83.9013 186.421C83.9013 187.342 84.2413 188.226 84.8465 188.877C85.4516 189.529 86.2724 189.895 87.1283 189.895ZM104.339 208.421C105.195 208.421 106.015 208.055 106.621 207.404C107.226 206.752 107.566 205.869 107.566 204.947C107.566 204.026 107.226 203.143 106.621 202.491C106.015 201.84 105.195 201.474 104.339 201.474C103.483 201.474 102.662 201.84 102.057 202.491C101.452 203.143 101.112 204.026 101.112 204.947C101.112 205.869 101.452 206.752 102.057 207.404C102.662 208.055 103.483 208.421 104.339 208.421ZM138.76 264C139.616 264 140.437 263.634 141.042 262.983C141.647 262.331 141.987 261.448 141.987 260.526C141.987 259.605 141.647 258.721 141.042 258.07C140.437 257.419 139.616 257.053 138.76 257.053C137.904 257.053 137.083 257.419 136.478 258.07C135.873 258.721 135.533 259.605 135.533 260.526C135.533 261.448 135.873 262.331 136.478 262.983C137.083 263.634 137.904 264 138.76 264ZM121.549 282.526C122.405 282.526 123.226 282.16 123.831 281.509C124.436 280.857 124.776 279.974 124.776 279.053C124.776 278.131 124.436 277.248 123.831 276.596C123.226 275.945 122.405 275.579 121.549 275.579C120.693 275.579 119.873 275.945 119.268 276.596C118.662 277.248 118.322 278.131 118.322 279.053C118.322 279.974 118.662 280.857 119.268 281.509C119.873 282.16 120.693 282.526 121.549 282.526ZM155.97 264C156.826 264 157.647 263.634 158.252 262.983C158.857 262.331 159.197 261.448 159.197 260.526C159.197 259.605 158.857 258.721 158.252 258.07C157.647 257.419 156.826 257.053 155.97 257.053C155.115 257.053 154.294 257.419 153.689 258.07C153.083 258.721 152.743 259.605 152.743 260.526C152.743 261.448 153.083 262.331 153.689 262.983C154.294 263.634 155.115 264 155.97 264ZM155.97 226.947C156.826 226.947 157.647 226.581 158.252 225.93C158.857 225.279 159.197 224.395 159.197 223.474C159.197 222.552 158.857 221.669 158.252 221.017C157.647 220.366 156.826 220 155.97 220C155.115 220 154.294 220.366 153.689 221.017C153.083 221.669 152.743 222.552 152.743 223.474C152.743 224.395 153.083 225.279 153.689 225.93C154.294 226.581 155.115 226.947 155.97 226.947ZM173.181 264C174.037 264 174.858 263.634 175.463 262.983C176.068 262.331 176.408 261.448 176.408 260.526C176.408 259.605 176.068 258.721 175.463 258.07C174.858 257.419 174.037 257.053 173.181 257.053C172.325 257.053 171.504 257.419 170.899 258.07C170.294 258.721 169.954 259.605 169.954 260.526C169.954 261.448 170.294 262.331 170.899 262.983C171.504 263.634 172.325 264 173.181 264ZM207.602 282.526C208.458 282.526 209.279 282.16 209.884 281.509C210.489 280.857 210.829 279.974 210.829 279.053C210.829 278.131 210.489 277.248 209.884 276.596C209.279 275.945 208.458 275.579 207.602 275.579C206.746 275.579 205.925 275.945 205.32 276.596C204.715 277.248 204.375 278.131 204.375 279.053C204.375 279.974 204.715 280.857 205.32 281.509C205.925 282.16 206.746 282.526 207.602 282.526ZM207.602 264C208.458 264 209.279 263.634 209.884 262.983C210.489 262.331 210.829 261.448 210.829 260.526C210.829 259.605 210.489 258.721 209.884 258.07C209.279 257.419 208.458 257.053 207.602 257.053C206.746 257.053 205.925 257.419 205.32 258.07C204.715 258.721 204.375 259.605 204.375 260.526C204.375 261.448 204.715 262.331 205.32 262.983C205.925 263.634 206.746 264 207.602 264ZM190.391 189.895C191.247 189.895 192.068 189.529 192.673 188.877C193.278 188.226 193.618 187.342 193.618 186.421C193.618 185.5 193.278 184.616 192.673 183.965C192.068 183.313 191.247 182.947 190.391 182.947C189.536 182.947 188.715 183.313 188.11 183.965C187.504 184.616 187.164 185.5 187.164 186.421C187.164 187.342 187.504 188.226 188.11 188.877C188.715 189.529 189.536 189.895 190.391 189.895ZM207.602 189.895C208.458 189.895 209.279 189.529 209.884 188.877C210.489 188.226 210.829 187.342 210.829 186.421C210.829 185.5 210.489 184.616 209.884 183.965C209.279 183.313 208.458 182.947 207.602 182.947C206.746 182.947 205.925 183.313 205.32 183.965C204.715 184.616 204.375 185.5 204.375 186.421C204.375 187.342 204.715 188.226 205.32 188.877C205.925 189.529 206.746 189.895 207.602 189.895ZM224.812 301.053C225.668 301.053 226.489 300.687 227.094 300.035C227.699 299.384 228.039 298.5 228.039 297.579C228.039 296.658 227.699 295.774 227.094 295.123C226.489 294.471 225.668 294.105 224.812 294.105C223.957 294.105 223.136 294.471 222.531 295.123C221.925 295.774 221.586 296.658 221.586 297.579C221.586 298.5 221.925 299.384 222.531 300.035C223.136 300.687 223.957 301.053 224.812 301.053ZM224.812 319.579C225.668 319.579 226.489 319.213 227.094 318.562C227.699 317.91 228.039 317.027 228.039 316.105C228.039 315.184 227.699 314.3 227.094 313.649C226.489 312.998 225.668 312.632 224.812 312.632C223.957 312.632 223.136 312.998 222.531 313.649C221.925 314.3 221.586 315.184 221.586 316.105C221.586 317.027 221.925 317.91 222.531 318.562C223.136 319.213 223.957 319.579 224.812 319.579ZM242.023 338.105C242.879 338.105 243.7 337.739 244.305 337.088C244.91 336.436 245.25 335.553 245.25 334.632C245.25 333.71 244.91 332.827 244.305 332.175C243.7 331.524 242.879 331.158 242.023 331.158C241.167 331.158 240.346 331.524 239.741 332.175C239.136 332.827 238.796 333.71 238.796 334.632C238.796 335.553 239.136 336.436 239.741 337.088C240.346 337.739 241.167 338.105 242.023 338.105ZM259.234 171.368C260.089 171.368 260.91 171.002 261.515 170.351C262.121 169.7 262.461 168.816 262.461 167.895C262.461 166.973 262.121 166.09 261.515 165.438C260.91 164.787 260.089 164.421 259.234 164.421C258.378 164.421 257.557 164.787 256.952 165.438C256.347 166.09 256.007 166.973 256.007 167.895C256.007 168.816 256.347 169.7 256.952 170.351C257.557 171.002 258.378 171.368 259.234 171.368ZM259.234 208.421C260.089 208.421 260.91 208.055 261.515 207.404C262.121 206.752 262.461 205.869 262.461 204.947C262.461 204.026 262.121 203.143 261.515 202.491C260.91 201.84 260.089 201.474 259.234 201.474C258.378 201.474 257.557 201.84 256.952 202.491C256.347 203.143 256.007 204.026 256.007 204.947C256.007 205.869 256.347 206.752 256.952 207.404C257.557 208.055 258.378 208.421 259.234 208.421ZM276.444 171.368C277.3 171.368 278.121 171.002 278.726 170.351C279.331 169.7 279.671 168.816 279.671 167.895C279.671 166.973 279.331 166.09 278.726 165.438C278.121 164.787 277.3 164.421 276.444 164.421C275.588 164.421 274.767 164.787 274.162 165.438C273.557 166.09 273.217 166.973 273.217 167.895C273.217 168.816 273.557 169.7 274.162 170.351C274.767 171.002 275.588 171.368 276.444 171.368ZM293.655 152.842C294.51 152.842 295.331 152.476 295.936 151.825C296.542 151.173 296.882 150.29 296.882 149.368C296.882 148.447 296.542 147.564 295.936 146.912C295.331 146.261 294.51 145.895 293.655 145.895C292.799 145.895 291.978 146.261 291.373 146.912C290.768 147.564 290.428 148.447 290.428 149.368C290.428 150.29 290.768 151.173 291.373 151.825C291.978 152.476 292.799 152.842 293.655 152.842ZM190.391 152.842C191.247 152.842 192.068 152.476 192.673 151.825C193.278 151.173 193.618 150.29 193.618 149.368C193.618 148.447 193.278 147.564 192.673 146.912C192.068 146.261 191.247 145.895 190.391 145.895C189.536 145.895 188.715 146.261 188.11 146.912C187.504 147.564 187.164 148.447 187.164 149.368C187.164 150.29 187.504 151.173 188.11 151.825C188.715 152.476 189.536 152.842 190.391 152.842ZM190.391 171.368C191.247 171.368 192.068 171.002 192.673 170.351C193.278 169.7 193.618 168.816 193.618 167.895C193.618 166.973 193.278 166.09 192.673 165.438C192.068 164.787 191.247 164.421 190.391 164.421C189.536 164.421 188.715 164.787 188.11 165.438C187.504 166.09 187.164 166.973 187.164 167.895C187.164 168.816 187.504 169.7 188.11 170.351C188.715 171.002 189.536 171.368 190.391 171.368ZM207.602 134.316C208.458 134.316 209.279 133.95 209.884 133.298C210.489 132.647 210.829 131.763 210.829 130.842C210.829 129.921 210.489 129.037 209.884 128.386C209.279 127.734 208.458 127.368 207.602 127.368C206.746 127.368 205.925 127.734 205.32 128.386C204.715 129.037 204.375 129.921 204.375 130.842C204.375 131.763 204.715 132.647 205.32 133.298C205.925 133.95 206.746 134.316 207.602 134.316ZM310.865 134.316C311.721 134.316 312.542 133.95 313.147 133.298C313.752 132.647 314.092 131.763 314.092 130.842C314.092 129.921 313.752 129.037 313.147 128.386C312.542 127.734 311.721 127.368 310.865 127.368C310.009 127.368 309.188 127.734 308.583 128.386C307.978 129.037 307.638 129.921 307.638 130.842C307.638 131.763 307.978 132.647 308.583 133.298C309.188 133.95 310.009 134.316 310.865 134.316ZM293.655 60.2105C294.51 60.2105 295.331 59.8445 295.936 59.1931C296.542 58.5417 296.882 57.6581 296.882 56.7368C296.882 55.8156 296.542 54.932 295.936 54.2806C295.331 53.6291 294.51 53.2632 293.655 53.2632C292.799 53.2632 291.978 53.6291 291.373 54.2806C290.768 54.932 290.428 55.8156 290.428 56.7368C290.428 57.6581 290.768 58.5417 291.373 59.1931C291.978 59.8445 292.799 60.2105 293.655 60.2105ZM310.865 41.6842C311.721 41.6842 312.542 41.3182 313.147 40.6668C313.752 40.0153 314.092 39.1318 314.092 38.2105C314.092 37.2892 313.752 36.4057 313.147 35.7543C312.542 35.1028 311.721 34.7368 310.865 34.7368C310.009 34.7368 309.188 35.1028 308.583 35.7543C307.978 36.4057 307.638 37.2892 307.638 38.2105C307.638 39.1318 307.978 40.0153 308.583 40.6668C309.188 41.3182 310.009 41.6842 310.865 41.6842ZM276.444 41.6842C277.3 41.6842 278.121 41.3182 278.726 40.6668C279.331 40.0153 279.671 39.1318 279.671 38.2105C279.671 37.2892 279.331 36.4057 278.726 35.7543C278.121 35.1028 277.3 34.7368 276.444 34.7368C275.588 34.7368 274.767 35.1028 274.162 35.7543C273.557 36.4057 273.217 37.2892 273.217 38.2105C273.217 39.1318 273.557 40.0153 274.162 40.6668C274.767 41.3182 275.588 41.6842 276.444 41.6842ZM276.444 23.1579C277.3 23.1579 278.121 22.7919 278.726 22.1405C279.331 21.489 279.671 20.6055 279.671 19.6842C279.671 18.7629 279.331 17.8794 278.726 17.2279C278.121 16.5765 277.3 16.2105 276.444 16.2105C275.588 16.2105 274.767 16.5765 274.162 17.2279C273.557 17.8794 273.217 18.7629 273.217 19.6842C273.217 20.6055 273.557 21.489 274.162 22.1405C274.767 22.7919 275.588 23.1579 276.444 23.1579ZM259.234 23.1579C260.089 23.1579 260.91 22.7919 261.515 22.1405C262.121 21.489 262.461 20.6055 262.461 19.6842C262.461 18.7629 262.121 17.8794 261.515 17.2279C260.91 16.5765 260.089 16.2105 259.234 16.2105C258.378 16.2105 257.557 16.5765 256.952 17.2279C256.347 17.8794 256.007 18.7629 256.007 19.6842C256.007 20.6055 256.347 21.489 256.952 22.1405C257.557 22.7919 258.378 23.1579 259.234 23.1579ZM242.023 23.1579C242.879 23.1579 243.7 22.7919 244.305 22.1405C244.91 21.489 245.25 20.6055 245.25 19.6842C245.25 18.7629 244.91 17.8794 244.305 17.2279C243.7 16.5765 242.879 16.2105 242.023 16.2105C241.167 16.2105 240.346 16.5765 239.741 17.2279C239.136 17.8794 238.796 18.7629 238.796 19.6842C238.796 20.6055 239.136 21.489 239.741 22.1405C240.346 22.7919 241.167 23.1579 242.023 23.1579ZM224.812 23.1579C225.668 23.1579 226.489 22.7919 227.094 22.1405C227.699 21.489 228.039 20.6055 228.039 19.6842C228.039 18.7629 227.699 17.8794 227.094 17.2279C226.489 16.5765 225.668 16.2105 224.812 16.2105C223.957 16.2105 223.136 16.5765 222.531 17.2279C221.925 17.8794 221.586 18.7629 221.586 19.6842C221.586 20.6055 221.925 21.489 222.531 22.1405C223.136 22.7919 223.957 23.1579 224.812 23.1579ZM52.7072 41.6842C53.5631 41.6842 54.3839 41.3182 54.989 40.6668C55.5942 40.0153 55.9342 39.1318 55.9342 38.2105C55.9342 37.2892 55.5942 36.4057 54.989 35.7543C54.3839 35.1028 53.5631 34.7368 52.7072 34.7368C51.8514 34.7368 51.0306 35.1028 50.4254 35.7543C49.8202 36.4057 49.4803 37.2892 49.4803 38.2105C49.4803 39.1318 49.8202 40.0153 50.4254 40.6668C51.0306 41.3182 51.8514 41.6842 52.7072 41.6842ZM18.2862 41.6842C19.142 41.6842 19.9628 41.3182 20.568 40.6668C21.1732 40.0153 21.5132 39.1318 21.5132 38.2105C21.5132 37.2892 21.1732 36.4057 20.568 35.7543C19.9628 35.1028 19.142 34.7368 18.2862 34.7368C17.4303 34.7368 16.6095 35.1028 16.0044 35.7543C15.3992 36.4057 15.0592 37.2892 15.0592 38.2105C15.0592 39.1318 15.3992 40.0153 16.0044 40.6668C16.6095 41.3182 17.4303 41.6842 18.2862 41.6842ZM52.7072 60.2105C53.5631 60.2105 54.3839 59.8445 54.989 59.1931C55.5942 58.5417 55.9342 57.6581 55.9342 56.7368C55.9342 55.8156 55.5942 54.932 54.989 54.2806C54.3839 53.6291 53.5631 53.2632 52.7072 53.2632C51.8514 53.2632 51.0306 53.6291 50.4254 54.2806C49.8202 54.932 49.4803 55.8156 49.4803 56.7368C49.4803 57.6581 49.8202 58.5417 50.4254 59.1931C51.0306 59.8445 51.8514 60.2105 52.7072 60.2105ZM35.4967 78.7368C36.3526 78.7368 37.1733 78.3709 37.7785 77.7194C38.3837 77.068 38.7237 76.1844 38.7237 75.2632C38.7237 74.3419 38.3837 73.4583 37.7785 72.8069C37.1733 72.1554 36.3526 71.7895 35.4967 71.7895C34.6409 71.7895 33.8201 72.1554 33.2149 72.8069C32.6097 73.4583 32.2697 74.3419 32.2697 75.2632C32.2697 76.1844 32.6097 77.068 33.2149 77.7194C33.8201 78.3709 34.6409 78.7368 35.4967 78.7368ZM52.7072 23.1579C53.5631 23.1579 54.3839 22.7919 54.989 22.1405C55.5942 21.489 55.9342 20.6055 55.9342 19.6842C55.9342 18.7629 55.5942 17.8794 54.989 17.2279C54.3839 16.5765 53.5631 16.2105 52.7072 16.2105C51.8514 16.2105 51.0306 16.5765 50.4254 17.2279C49.8202 17.8794 49.4803 18.7629 49.4803 19.6842C49.4803 20.6055 49.8202 21.489 50.4254 22.1405C51.0306 22.7919 51.8514 23.1579 52.7072 23.1579ZM52.7072 301.053C53.5631 301.053 54.3839 300.687 54.989 300.035C55.5942 299.384 55.9342 298.5 55.9342 297.579C55.9342 296.658 55.5942 295.774 54.989 295.123C54.3839 294.471 53.5631 294.105 52.7072 294.105C51.8514 294.105 51.0306 294.471 50.4254 295.123C49.8202 295.774 49.4803 296.658 49.4803 297.579C49.4803 298.5 49.8202 299.384 50.4254 300.035C51.0306 300.687 51.8514 301.053 52.7072 301.053ZM69.9178 338.105C70.7736 338.105 71.5944 337.739 72.1996 337.088C72.8047 336.436 73.1447 335.553 73.1447 334.632C73.1447 333.71 72.8047 332.827 72.1996 332.175C71.5944 331.524 70.7736 331.158 69.9178 331.158C69.0619 331.158 68.2411 331.524 67.6359 332.175C67.0308 332.827 66.6908 333.71 66.6908 334.632C66.6908 335.553 67.0308 336.436 67.6359 337.088C68.2411 337.739 69.0619 338.105 69.9178 338.105ZM52.7072 264C53.5631 264 54.3839 263.634 54.989 262.983C55.5942 262.331 55.9342 261.448 55.9342 260.526C55.9342 259.605 55.5942 258.721 54.989 258.07C54.3839 257.419 53.5631 257.053 52.7072 257.053C51.8514 257.053 51.0306 257.419 50.4254 258.07C49.8202 258.721 49.4803 259.605 49.4803 260.526C49.4803 261.448 49.8202 262.331 50.4254 262.983C51.0306 263.634 51.8514 264 52.7072 264ZM52.7072 282.526C53.5631 282.526 54.3839 282.16 54.989 281.509C55.5942 280.857 55.9342 279.974 55.9342 279.053C55.9342 278.131 55.5942 277.248 54.989 276.596C54.3839 275.945 53.5631 275.579 52.7072 275.579C51.8514 275.579 51.0306 275.945 50.4254 276.596C49.8202 277.248 49.4803 278.131 49.4803 279.053C49.4803 279.974 49.8202 280.857 50.4254 281.509C51.0306 282.16 51.8514 282.526 52.7072 282.526ZM35.4967 245.474C36.3526 245.474 37.1733 245.108 37.7785 244.456C38.3837 243.805 38.7237 242.921 38.7237 242C38.7237 241.079 38.3837 240.195 37.7785 239.544C37.1733 238.892 36.3526 238.526 35.4967 238.526C34.6409 238.526 33.8201 238.892 33.2149 239.544C32.6097 240.195 32.2697 241.079 32.2697 242C32.2697 242.921 32.6097 243.805 33.2149 244.456C33.8201 245.108 34.6409 245.474 35.4967 245.474ZM121.549 41.6842C122.405 41.6842 123.226 41.3182 123.831 40.6668C124.436 40.0153 124.776 39.1318 124.776 38.2105C124.776 37.2892 124.436 36.4057 123.831 35.7543C123.226 35.1028 122.405 34.7368 121.549 34.7368C120.693 34.7368 119.873 35.1028 119.268 35.7543C118.662 36.4057 118.322 37.2892 118.322 38.2105C118.322 39.1318 118.662 40.0153 119.268 40.6668C119.873 41.3182 120.693 41.6842 121.549 41.6842ZM138.76 41.6842C139.616 41.6842 140.437 41.3182 141.042 40.6668C141.647 40.0153 141.987 39.1318 141.987 38.2105C141.987 37.2892 141.647 36.4057 141.042 35.7543C140.437 35.1028 139.616 34.7368 138.76 34.7368C137.904 34.7368 137.083 35.1028 136.478 35.7543C135.873 36.4057 135.533 37.2892 135.533 38.2105C135.533 39.1318 135.873 40.0153 136.478 40.6668C137.083 41.3182 137.904 41.6842 138.76 41.6842ZM121.549 23.1579C122.405 23.1579 123.226 22.7919 123.831 22.1405C124.436 21.489 124.776 20.6055 124.776 19.6842C124.776 18.7629 124.436 17.8794 123.831 17.2279C123.226 16.5765 122.405 16.2105 121.549 16.2105C120.693 16.2105 119.873 16.5765 119.268 17.2279C118.662 17.8794 118.322 18.7629 118.322 19.6842C118.322 20.6055 118.662 21.489 119.268 22.1405C119.873 22.7919 120.693 23.1579 121.549 23.1579ZM155.97 78.7368C156.826 78.7368 157.647 78.3709 158.252 77.7194C158.857 77.068 159.197 76.1844 159.197 75.2632C159.197 74.3419 158.857 73.4583 158.252 72.8069C157.647 72.1554 156.826 71.7895 155.97 71.7895C155.115 71.7895 154.294 72.1554 153.689 72.8069C153.083 73.4583 152.743 74.3419 152.743 75.2632C152.743 76.1844 153.083 77.068 153.689 77.7194C154.294 78.3709 155.115 78.7368 155.97 78.7368ZM173.181 60.2105C174.037 60.2105 174.858 59.8445 175.463 59.1931C176.068 58.5417 176.408 57.6581 176.408 56.7368C176.408 55.8156 176.068 54.932 175.463 54.2806C174.858 53.6291 174.037 53.2632 173.181 53.2632C172.325 53.2632 171.504 53.6291 170.899 54.2806C170.294 54.932 169.954 55.8156 169.954 56.7368C169.954 57.6581 170.294 58.5417 170.899 59.1931C171.504 59.8445 172.325 60.2105 173.181 60.2105ZM173.181 23.1579C174.037 23.1579 174.858 22.7919 175.463 22.1405C176.068 21.489 176.408 20.6055 176.408 19.6842C176.408 18.7629 176.068 17.8794 175.463 17.2279C174.858 16.5765 174.037 16.2105 173.181 16.2105C172.325 16.2105 171.504 16.5765 170.899 17.2279C170.294 17.8794 169.954 18.7629 169.954 19.6842C169.954 20.6055 170.294 21.489 170.899 22.1405C171.504 22.7919 172.325 23.1579 173.181 23.1579ZM293.655 226.947C294.51 226.947 295.331 226.581 295.936 225.93C296.542 225.279 296.882 224.395 296.882 223.474C296.882 222.552 296.542 221.669 295.936 221.017C295.331 220.366 294.51 220 293.655 220C292.799 220 291.978 220.366 291.373 221.017C290.768 221.669 290.428 222.552 290.428 223.474C290.428 224.395 290.768 225.279 291.373 225.93C291.978 226.581 292.799 226.947 293.655 226.947ZM276.444 245.474C277.3 245.474 278.121 245.108 278.726 244.456C279.331 243.805 279.671 242.921 279.671 242C279.671 241.079 279.331 240.195 278.726 239.544C278.121 238.892 277.3 238.526 276.444 238.526C275.588 238.526 274.767 238.892 274.162 239.544C273.557 240.195 273.217 241.079 273.217 242C273.217 242.921 273.557 243.805 274.162 244.456C274.767 245.108 275.588 245.474 276.444 245.474ZM276.444 264C277.3 264 278.121 263.634 278.726 262.983C279.331 262.331 279.671 261.448 279.671 260.526C279.671 259.605 279.331 258.721 278.726 258.07C278.121 257.419 277.3 257.053 276.444 257.053C275.588 257.053 274.767 257.419 274.162 258.07C273.557 258.721 273.217 259.605 273.217 260.526C273.217 261.448 273.557 262.331 274.162 262.983C274.767 263.634 275.588 264 276.444 264ZM276.444 282.526C277.3 282.526 278.121 282.16 278.726 281.509C279.331 280.857 279.671 279.974 279.671 279.053C279.671 278.131 279.331 277.248 278.726 276.596C278.121 275.945 277.3 275.579 276.444 275.579C275.588 275.579 274.767 275.945 274.162 276.596C273.557 277.248 273.217 278.131 273.217 279.053C273.217 279.974 273.557 280.857 274.162 281.509C274.767 282.16 275.588 282.526 276.444 282.526ZM18.2862 208.421C19.142 208.421 19.9628 208.055 20.568 207.404C21.1732 206.752 21.5132 205.869 21.5132 204.947C21.5132 204.026 21.1732 203.143 20.568 202.491C19.9628 201.84 19.142 201.474 18.2862 201.474C17.4303 201.474 16.6095 201.84 16.0044 202.491C15.3992 203.143 15.0592 204.026 15.0592 204.947C15.0592 205.869 15.3992 206.752 16.0044 207.404C16.6095 208.055 17.4303 208.421 18.2862 208.421ZM18.2862 226.947C19.142 226.947 19.9628 226.581 20.568 225.93C21.1732 225.279 21.5132 224.395 21.5132 223.474C21.5132 222.552 21.1732 221.669 20.568 221.017C19.9628 220.366 19.142 220 18.2862 220C17.4303 220 16.6095 220.366 16.0044 221.017C15.3992 221.669 15.0592 222.552 15.0592 223.474C15.0592 224.395 15.3992 225.279 16.0044 225.93C16.6095 226.581 17.4303 226.947 18.2862 226.947ZM18.2862 189.895C19.142 189.895 19.9628 189.529 20.568 188.877C21.1732 188.226 21.5132 187.342 21.5132 186.421C21.5132 185.5 21.1732 184.616 20.568 183.965C19.9628 183.313 19.142 182.947 18.2862 182.947C17.4303 182.947 16.6095 183.313 16.0044 183.965C15.3992 184.616 15.0592 185.5 15.0592 186.421C15.0592 187.342 15.3992 188.226 16.0044 188.877C16.6095 189.529 17.4303 189.895 18.2862 189.895ZM35.4967 189.895C36.3526 189.895 37.1733 189.529 37.7785 188.877C38.3837 188.226 38.7237 187.342 38.7237 186.421C38.7237 185.5 38.3837 184.616 37.7785 183.965C37.1733 183.313 36.3526 182.947 35.4967 182.947C34.6409 182.947 33.8201 183.313 33.2149 183.965C32.6097 184.616 32.2697 185.5 32.2697 186.421C32.2697 187.342 32.6097 188.226 33.2149 188.877C33.8201 189.529 34.6409 189.895 35.4967 189.895ZM18.2862 97.2632C19.142 97.2632 19.9628 96.8972 20.568 96.2457C21.1732 95.5943 21.5132 94.7108 21.5132 93.7895C21.5132 92.8682 21.1732 91.9846 20.568 91.3332C19.9628 90.6818 19.142 90.3158 18.2862 90.3158C17.4303 90.3158 16.6095 90.6818 16.0044 91.3332C15.3992 91.9846 15.0592 92.8682 15.0592 93.7895C15.0592 94.7108 15.3992 95.5943 16.0044 96.2457C16.6095 96.8972 17.4303 97.2632 18.2862 97.2632ZM52.7072 171.368C53.5631 171.368 54.3839 171.002 54.989 170.351C55.5942 169.7 55.9342 168.816 55.9342 167.895C55.9342 166.973 55.5942 166.09 54.989 165.438C54.3839 164.787 53.5631 164.421 52.7072 164.421C51.8514 164.421 51.0306 164.787 50.4254 165.438C49.8202 166.09 49.4803 166.973 49.4803 167.895C49.4803 168.816 49.8202 169.7 50.4254 170.351C51.0306 171.002 51.8514 171.368 52.7072 171.368ZM69.9178 152.842C70.7736 152.842 71.5944 152.476 72.1996 151.825C72.8047 151.173 73.1447 150.29 73.1447 149.368C73.1447 148.447 72.8047 147.564 72.1996 146.912C71.5944 146.261 70.7736 145.895 69.9178 145.895C69.0619 145.895 68.2411 146.261 67.6359 146.912C67.0308 147.564 66.6908 148.447 66.6908 149.368C66.6908 150.29 67.0308 151.173 67.6359 151.825C68.2411 152.476 69.0619 152.842 69.9178 152.842Z" fill="#141414"/>
</svg>
